PathFileType	4	(x/y/z)	S02_P20_T17
DataRate	CameraRate	NumFrames	NumMarkers	Units	OrigDataRate	OrigDataStartFrame	OrigNumFrames
240	240	5	51	mm	240	214	341
Frame#	Time	Sternum			R.Acromium			L.Acromium			Top.Head			R.ASIS			L.ASIS			R.PSIS			L.PSIS			R.Great.Tro			L.Great.Tro			R.Iliac.Crest			L.Iliac.Crest			V.Sacral			R.Thigh.Upper.Post			R.Thigh.Lower.Ant			R.Thigh.Lower.Post			R.Thigh.Upper.Ant			R.Knee.Lat			R.Knee.Med			R.Shank.Upper.Post			R.Shank.Lower.Ant			R.Shank.Lower.Post			R.Shank.Upper.Ant			R.Ankle.Lat			R.Ankle.Med			R.Heel.Upper			R.Heel.Med			R.Heel.Lat			R.Toe.Lat			R.Toe.Med			R.Toe.Tip			L.Thigh.Upper.Post			L.Thigh.Lower.Ant			L.Thigh.Lower.Post			L.Thigh.Upper.Ant			L.Knee.Lat			L.Knee.Med			L.Shank.Upper.Post			L.Shank.Lower.Ant			L.Shank.Lower.Post			L.Shank.Upper.Ant			L.Ankle.Lat			L.Ankle.Med			L.Heel.Upper			L.Heel.Med			L.Heel.Lat			L.Toe.Lat			L.Toe.Med			L.Toe.Tip			Cervical.Spine			Back			
		X1	Y1	Z1	X2	Y2	Z2	X3	Y3	Z3	X4	Y4	Z4	X5	Y5	Z5	X6	Y6	Z6	X7	Y7	Z7	X8	Y8	Z8	X9	Y9	Z9	X10	Y10	Z10	X11	Y11	Z11	X12	Y12	Z12	X13	Y13	Z13	X14	Y14	Z14	X15	Y15	Z15	X16	Y16	Z16	X17	Y17	Z17	X18	Y18	Z18	X19	Y19	Z19	X20	Y20	Z20	X21	Y21	Z21	X22	Y22	Z22	X23	Y23	Z23	X24	Y24	Z24	X25	Y25	Z25	X26	Y26	Z26	X27	Y27	Z27	X28	Y28	Z28	X29	Y29	Z29	X30	Y30	Z30	X31	Y31	Z31	X32	Y32	Z32	X33	Y33	Z33	X34	Y34	Z34	X35	Y35	Z35	X36	Y36	Z36	X37	Y37	Z37	X38	Y38	Z38	X39	Y39	Z39	X40	Y40	Z40	X41	Y41	Z41	X42	Y42	Z42	X43	Y43	Z43	X44	Y44	Z44	X45	Y45	Z45	X46	Y46	Z46	X47	Y47	Z47	X48	Y48	Z48	X49	Y49	Z49	X50	Y50	Z50	X51	Y51	Z51	

214	0.8875	-57.304	1070.8	314.08	-157.17	1310.2	460.9	-184.67	1315	169.51	-120.27	1596.1	306.1	-112.19	888.09	434.05	-76.655	888.95	224.26	-312.87	939.13	342.64	-307.03	944.28	268.72	-215.07	787.04	506.34	-176.17	808.75	117.02	-217.71	937.58	474.45	-190.91	942.93	139.11	-339.34	899.1	294.68	-264.88	585.58	480.36	-234.47	494.93	442.59	-305.33	507.19	456.78	-198.43	574.38	464.1	-316.01	427.45	440.18	-328.4	422.45	295.99	-483.5	282.12	424.03	-459.01	176.11	402.44	-513.96	215.37	413.66	-426.71	236.12	420.51	-548.21	120.24	398.78	-540.93	135.74	313.83	-612.88	126.9	346.18	-608.86	95.178	315.78	-617.17	92.938	379.42	-465.68	37.615	411.52	-439.1	32.202	303.23	-387.92	52.577	355.14	-104.67	580.19	140.76	-2.3295	543.22	158.93	-68.345	500.62	167.96	-47.965	623.14	132.39	12.44	462.86	169.37	0.29239	459.94	308.97	-29.873	277.99	175.12	59.075	211.26	189.27	-13.748	207.13	192.96	35.501	282.16	172.3	43.867	101.25	203.46	58.585	104.81	284.87	-6.1667	61.772	240.55	5.5051	40.688	276.6	4.0999	32.306	215.32	168.51	46.778	185.05	185.62	73.63	290.48	242.29	95.079	242.04	-249.03	1369.2	324.98	-319.35	1115	336.89
215	0.89167	-50.985	1069.6	313.71	-151.34	1309.2	460.16	-178.39	1313.7	168.67	-114.56	1595.2	305.3	-105.88	886.94	433.94	-70.08	887.89	224.03	-306.57	937.94	342.37	-300.74	943.16	268.45	-208.92	785.74	506.1	-169.68	807.98	116.9	-211.47	936.38	474.31	-184.39	941.73	138.67	-332.95	897.86	294.36	-258.39	584.37	480.05	-227.59	493.7	442.77	-298.53	505.83	456.62	-191.83	573.3	464.19	-309.16	426.08	440.37	-321	420.81	296.16	-478.71	283.35	424.28	-456.08	176.89	403.02	-510.26	217.05	413.98	-422.79	236.43	420.93	-545.97	122.18	399.36	-538.13	137.78	314.49	-610.25	130.38	346.79	-606.89	98.861	316.18	-615.31	96.404	379.81	-465.33	37.73	411.64	-439.05	32.39	303.32	-387.89	52.281	355.11	-98.719	579.12	141.07	3.5886	542.06	159.05	-62.443	499.57	168.42	-42.034	621.97	132.44	18.219	461.61	169.68	6.961	459.39	309.03	-25.667	277.26	175.74	62.404	209.53	190.34	-10.442	206.25	193.72	39.732	280.66	173.22	45.711	100.37	204.54	60.137	103.32	286.03	-5.0404	61.75	241.23	6.1772	40.072	277.13	4.9219	32.418	215.77	169.62	45.016	186.06	186.81	70.512	291.9	243.89	91.578	243.77	-243.14	1368.2	324.05	-313.18	1113.9	336.18
216	0.89583	-44.661	1068.5	313.33	-145.53	1308.3	459.42	-172.1	1312.4	167.8	-108.84	1594.3	304.49	-99.543	885.86	433.77	-63.533	886.91	223.75	-300.25	936.81	342.15	-294.47	942.11	268.24	-202.67	784.47	505.87	-163.25	807.3	116.74	-205.15	935.26	474.19	-177.9	940.63	138.23	-326.54	896.68	294.11	-251.72	583.16	479.76	-220.46	492.49	443	-291.48	504.44	456.49	-185.05	572.28	464.3	-302.03	424.69	440.62	-313.31	419.12	296.4	-473.65	284.66	424.57	-452.93	177.77	403.67	-506.31	218.85	414.34	-418.63	236.81	421.43	-543.51	124.26	399.97	-535.03	139.93	315.22	-607.31	134.09	347.44	-604.65	102.8	316.6	-613.21	100.13	380.23	-464.93	37.909	411.78	-438.95	32.644	303.42	-387.81	51.962	355.09	-92.844	578.13	141.38	9.435	540.94	159.14	-56.615	498.58	168.89	-36.171	620.84	132.46	23.973	460.45	169.97	13.563	458.91	309.09	-21.511	276.66	176.35	65.643	207.9	191.4	-7.2139	205.52	194.45	43.906	279.27	174.12	47.366	99.608	205.59	61.506	101.92	287.17	-4.107	61.813	241.9	6.669	39.546	277.63	5.5384	32.623	216.2	170.51	43.391	186.98	187.82	67.476	293.25	245.28	88.163	245.41	-237.23	1367.2	323.08	-307.01	1112.8	335.44
217	0.9	-38.338	1067.5	312.93	-139.72	1307.4	458.69	-165.78	1311.2	166.9	-103.11	1593.6	303.69	-93.171	884.85	433.52	-57.022	886.03	223.42	-293.91	935.75	342	-288.21	941.15	268.09	-196.33	783.22	505.65	-156.86	806.7	116.55	-198.73	934.24	474.08	-171.44	939.64	137.79	-320.13	895.56	293.92	-244.87	581.96	479.49	-213.08	491.3	443.28	-284.2	503.03	456.41	-178.08	571.3	464.44	-294.63	423.28	440.95	-305.33	417.38	296.72	-468.31	286.07	424.91	-449.53	178.76	404.39	-502.08	220.77	414.75	-414.22	237.26	421.99	-540.8	126.48	400.61	-531.63	142.21	315.99	-604.05	138.03	348.14	-602.13	107.01	317.05	-610.84	104.12	380.69	-464.46	38.166	411.94	-438.81	32.976	303.54	-387.69	51.617	355.09	-87.036	577.21	141.7	15.212	539.88	159.18	-50.859	497.67	169.37	-30.375	619.79	132.44	29.709	459.38	170.26	20.079	458.51	309.16	-17.395	276.2	176.95	68.806	206.38	192.42	-4.05	204.92	195.14	48.035	278	175	48.855	98.953	206.6	62.716	100.63	288.26	-3.3363	61.948	242.55	7.0169	39.11	278.1	5.987	32.904	216.6	171.2	41.915	187.81	188.68	64.563	294.51	246.5	84.88	246.93	-231.3	1366.4	322.09	-300.84	1111.9	334.69
218	0.90417	-32.023	1066.7	312.52	-133.93	1306.6	457.96	-159.45	1310.1	165.99	-97.365	1592.9	302.88	-86.776	883.92	433.21	-50.555	885.24	223.05	-287.57	934.75	341.91	-281.98	940.27	268	-189.9	781.99	505.43	-150.53	806.2	116.32	-192.24	933.32	473.99	-165.03	938.78	137.36	-313.71	894.51	293.79	-237.84	580.78	479.25	-205.46	490.16	443.63	-276.68	501.6	456.39	-170.92	570.4	464.61	-286.95	421.86	441.36	-297.04	415.61	297.14	-462.68	287.56	425.3	-445.88	179.87	405.18	-497.57	222.81	415.2	-409.53	237.8	422.63	-537.83	128.84	401.29	-527.9	144.63	316.83	-600.44	142.2	348.88	-599.31	111.49	317.54	-608.18	108.38	381.18	-463.91	38.515	412.12	-438.59	33.398	303.67	-387.51	51.243	355.13	-81.294	576.38	142	20.923	538.9	159.18	-45.172	496.85	169.85	-24.641	618.8	132.39	35.436	458.42	170.52	26.492	458.18	309.23	-13.313	275.88	177.5	71.899	204.99	193.4	-0.94184	204.49	195.79	52.121	276.84	175.83	50.195	98.408	207.57	63.786	99.46	289.29	-2.7027	62.141	243.16	7.2525	38.76	278.53	6.2999	33.243	216.96	171.74	40.596	188.54	189.4	61.809	295.66	247.56	81.768	248.33	-225.37	1365.6	321.08	-294.68	1111.1	333.92
